<?xml version="1.0" encoding="UTF-8"?>
<svg id="Layer_1" xmlns="http://www.w3.org/2000/svg" width="600" height="181" version="1.1" viewBox="0 0 600 181">
  <!-- Generator: Adobe Illustrator 30.4.0, SVG Export Plug-In . SVG Version: 2.1.4 Build 226)  -->
  <defs>
    <style>
      .st0 {
        fill: #48bfc4;
      }

      .st1 {
        fill: #fff;
      }

      .st2 {
        fill: #fcfdfd;
      }
    </style>
  </defs>
  <g>
    <path class="st0" d="M37.8,64c0,1.3,0,2.6,0,4l-19.3,10.3-1.3-.8,20.6-13.5Z"/>
    <polygon class="st0" points="15.7 78.5 16.3 78.5 17 78.5 16.3 78.5 15.7 78.5 15 78.5 15.7 78.5"/>
    <g>
      <polygon class="st1" points="591.1 137.7 576 137.8 539.9 90.3 539.5 137.9 523.9 137.9 523.9 63.7 539 63.8 575.4 111.6 575.6 63.8 591.1 63.7 591.1 137.7"/>
      <polygon class="st1" points="235.3 107.2 199.5 107.3 199.4 124.2 240.7 124.2 240.7 137.9 183 137.9 183 63.6 239.2 63.6 239.3 77.1 199.7 77.1 199.5 93.7 235.3 93.8 235.3 107.2"/>
      <path class="st1" d="M424.5,122.8c-6,20-41.9,19.9-60.7,4.1l6.5-13.4c12.1,10.7,35.2,15.7,37.5,4.9,2.6-12.2-24.9-9.8-35.1-21.1-4.9-5.4-5.7-12.8-3.2-19.9,6.2-17.8,37.9-18,55.5-6.6l-6.3,13.7c-11.2-6.8-30.4-11.4-32.6-2.7-3.1,12.2,24.9,9.6,35.3,22s5.2,12.3,3.1,19.1Z"/>
      <rect class="st1" x="336.4" y="63.5" width="16.6" height="74.5"/>
      <path class="st1" d="M324.8,98.5c1.5,21.3-13.7,37.4-34.4,39l-36.2.4V63.6c0,0,36.6.4,36.6.4,18.8,1.4,33.2,15.2,33.9,34.5ZM308.1,100.5c-.1-13.3-9.6-23.2-22.2-23.2h-15.1c0,.1,0,46.6,0,46.6l18.1-.2c11.7-1.1,19.2-11.2,19.1-23.3Z"/>
      <path class="st1" d="M511.5,108.6c-4.3,22.4-28.4,34.6-51.3,28.3-13.9-3.9-24.2-15-26.8-28-2.9-14.5,1.7-29.1,13.8-37.8,15-10.9,35.8-10.9,50.7.1s16.5,22.7,13.7,37.4ZM495.7,100.8c0-12.8-10.4-23.3-23.3-23.3s-23.3,10.4-23.3,23.3,10.4,23.3,23.3,23.3,23.3-10.4,23.3-23.3Z"/>
    </g>
    <path class="st2" d="M195.2,161.6h-5.3c.2-2,.8-3.6,2.6-5.8,1.2,1.5,2,2.7,2.7,5.8Z"/>
    <g>
      <path class="st1" d="M158.5,62.9c-3.1-2.2-6.2-4.2-9.4-6.4-3.4-24.1-23.8-41.9-47-43.5-24.9-1.8-46.6,14-53.4,36.8-7.4,24.6,4,49.3,26.2,61.3,7.4,4.1,8.7,12.7,8,21.9l42-24.1c15.2-8.7,23.8-24.5,25.2-42.2l8.2,4.4c-2.3,21.1-15.1,37.8-33.2,48.1l-47.6,27.2c-.9.5-1.9.3-2.4,0s-1-1.3-1-2.4v-18c0-3.6-1.8-6.6-4.9-8.3-18.6-10.2-30.2-29-31.4-49.8,0-1.4-.1-2.7,0-4,.5-33,26.9-59.5,59.8-59.9,32.8-.4,60.4,25.5,61,58.8Z"/>
      <path class="st0" d="M149.2,56.5c3.2,2.2,6.3,4.2,9.4,6.4l19.3,13.5-1.4.9-78.2-43.5-47.9,26.6c-.8-2.6-.2-4.1.4-6.1l47.7-32.6,50.8,34.6Z"/>
      <path class="st1" d="M119.2,159.6l-40.2.3c-2.9,0-4.8-2.1-4.8-4.4s1.9-4.5,4.8-4.5h38c2.6,0,4.2.9,5,2.7s.2,5.8-2.8,5.8Z"/>
      <path class="st1" d="M122.2,141.5c0,4-3.2,4.7-6.2,4.7l-26.2-.4,31.3-17.7c1.9,4.5,1,8.8,1,13.5Z"/>
      <path class="st1" d="M108.5,173.4h-20.6c-2.8,0-4.4-1.7-4.6-4s1.5-4.7,4.6-4.7h21.1c2.6,0,3.9,2,4.1,3.8s-1.1,4.8-4.6,4.8Z"/>
      <rect class="st0" x="84" y="71.9" width="12" height="12"/>
      <rect class="st0" x="84" y="56.5" width="12" height="11.9"/>
      <rect class="st0" x="100.6" y="71.9" width="11.9" height="12.1"/>
      <rect class="st0" x="100.6" y="56.5" width="11.9" height="11.9"/>
      <polygon class="st0" points="178.5 77 178.5 77.7 178.5 78.3 178.5 79 178.5 78.3 178.5 77.7 178.5 77"/>
    </g>
  </g>
  <g>
    <path class="st0" d="M198.6,168.5l-2.1-5.1h-8l-2,5.1h-3.6l7.8-18.6h3.7l7.8,18.6h-3.6ZM195.7,160.7l-2-5c-.1-.3-.3-.9-.6-1.6-.3-.7-.4-1.3-.5-1.6-.3,1-.6,2.2-1.1,3.4l-1.9,4.8h6.1Z"/>
    <path class="st0" d="M217,163.4c0,1.6-.7,2.9-2,3.9-1.3.9-3.2,1.4-5.5,1.4s-4.3-.3-5.8-1v-2.9c.9.4,2,.7,3,.9s2.1.3,3,.3c1.3,0,2.3-.2,3-.7.6-.5,1-1.1,1-1.8s-.3-1.3-.9-1.8c-.6-.5-1.8-1.1-3.6-1.7-1.9-.7-3.2-1.5-4-2.3-.8-.9-1.2-1.9-1.2-3.2s.6-2.8,1.9-3.7,2.9-1.3,5-1.3,4,.4,6,1.2l-1.1,2.5c-1.9-.7-3.5-1-5-1s-1.9.2-2.5.6-.9,1-.9,1.7.1.9.3,1.2c.2.3.6.7,1.1,1,.5.3,1.5.7,2.8,1.2,1.5.6,2.6,1.1,3.4,1.6.7.5,1.2,1,1.6,1.7s.5,1.3.5,2.2Z"/>
    <path class="st0" d="M233,163.4c0,1.6-.7,2.9-2,3.9-1.3.9-3.2,1.4-5.5,1.4s-4.3-.3-5.8-1v-2.9c.9.4,2,.7,3,.9s2.1.3,3,.3c1.3,0,2.3-.2,3-.7.6-.5,1-1.1,1-1.8s-.3-1.3-.9-1.8c-.6-.5-1.8-1.1-3.6-1.7-1.9-.7-3.2-1.5-4-2.3-.8-.9-1.2-1.9-1.2-3.2s.6-2.8,1.9-3.7,2.9-1.3,5-1.3,4,.4,6,1.2l-1.1,2.5c-1.9-.7-3.5-1-5-1s-1.9.2-2.5.6-.9,1-.9,1.7.1.9.3,1.2c.2.3.6.7,1.1,1,.5.3,1.5.7,2.8,1.2,1.5.6,2.6,1.1,3.4,1.6.7.5,1.2,1,1.6,1.7s.5,1.3.5,2.2Z"/>
    <path class="st0" d="M255.6,159.2c0,3-.8,5.4-2.5,7-1.7,1.7-4.1,2.5-7.2,2.5s-5.6-.8-7.2-2.5c-1.7-1.7-2.5-4-2.5-7.1s.8-5.4,2.5-7c1.7-1.6,4.1-2.5,7.3-2.5s5.5.8,7.2,2.5c1.7,1.7,2.5,4,2.5,7ZM239.7,159.2c0,2.3.5,4,1.6,5.2,1,1.2,2.6,1.8,4.6,1.8s3.5-.6,4.6-1.8c1-1.2,1.5-2.9,1.5-5.2s-.5-4-1.5-5.2c-1-1.2-2.5-1.8-4.6-1.8s-3.6.6-4.6,1.8c-1,1.2-1.6,2.9-1.6,5.2Z"/>
    <path class="st0" d="M268.9,152.3c-2,0-3.5.6-4.6,1.9s-1.7,2.9-1.7,5.1.5,4,1.6,5.2c1.1,1.2,2.6,1.8,4.7,1.8s1.7,0,2.6-.2c.8-.2,1.7-.4,2.6-.6v2.6c-1.6.5-3.5.8-5.6.8-3,0-5.4-.8-7-2.5-1.6-1.6-2.4-4-2.4-7.1s.4-3.6,1.2-5.1c.8-1.4,1.9-2.6,3.4-3.3,1.5-.8,3.3-1.2,5.3-1.2s4.1.4,5.9,1.2l-1.2,2.5c-.7-.3-1.4-.6-2.2-.8-.8-.2-1.6-.3-2.5-.3Z"/>
    <path class="st0" d="M278.5,168.5v-18.5h3.4v18.5h-3.4Z"/>
    <path class="st0" d="M300.4,168.5l-2.1-5.1h-8l-2,5.1h-3.6l7.8-18.6h3.7l7.8,18.6h-3.6ZM297.4,160.7l-2-5c-.1-.3-.3-.9-.6-1.6-.3-.7-.4-1.3-.5-1.6-.3,1-.6,2.2-1.1,3.4l-1.9,4.8h6.1Z"/>
    <path class="st0" d="M313.9,168.5h-3.4v-15.9h-6.1v-2.6h15.7v2.6h-6.1v15.9Z"/>
    <path class="st0" d="M323.2,168.5v-18.5h3.4v18.5h-3.4Z"/>
    <path class="st0" d="M350.6,159.2c0,3-.8,5.4-2.5,7-1.7,1.7-4.1,2.5-7.2,2.5s-5.6-.8-7.2-2.5-2.5-4-2.5-7.1.8-5.4,2.5-7c1.7-1.6,4.1-2.5,7.3-2.5s5.5.8,7.2,2.5c1.7,1.7,2.5,4,2.5,7ZM334.7,159.2c0,2.3.5,4,1.6,5.2,1,1.2,2.6,1.8,4.6,1.8s3.5-.6,4.6-1.8,1.5-2.9,1.5-5.2-.5-4-1.5-5.2c-1-1.2-2.5-1.8-4.6-1.8s-3.6.6-4.6,1.8c-1,1.2-1.6,2.9-1.6,5.2Z"/>
    <path class="st0" d="M372.4,168.5h-4.2l-10.2-14.8h-.1v.8c.2,1.6.3,3,.3,4.3v9.6h-3.1v-18.5h4.1l10.2,14.7h0c0-.2,0-.9-.1-2.1,0-1.2,0-2.2,0-2.9v-9.7h3.1v18.5Z"/>
    <path class="st0" d="M394.5,168.5l-6-15.5h-.1c.2,2.3.2,4.5.2,6.5v9h-3.1v-18.5h4.8l5.8,14.7h0l6-14.7h4.8v18.5h-3.3v-9.2c0-.9,0-2.1,0-3.6,0-1.5,0-2.4.1-2.7h-.1l-6.3,15.5h-3Z"/>
    <path class="st0" d="M425.4,168.5l-2.1-5.1h-8l-2,5.1h-3.6l7.8-18.6h3.7l7.8,18.6h-3.6ZM422.4,160.7l-2-5c-.1-.3-.3-.9-.6-1.6-.3-.7-.4-1.3-.5-1.6-.3,1-.6,2.2-1.1,3.4l-1.9,4.8h6.1Z"/>
    <path class="st0" d="M449.1,168.5h-4.2l-10.2-14.8h-.1v.8c.2,1.6.3,3,.3,4.3v9.6h-3.1v-18.5h4.1l10.2,14.7h0c0-.2,0-.9-.1-2.1,0-1.2,0-2.2,0-2.9v-9.7h3.1v18.5Z"/>
    <path class="st0" d="M467.5,168.5l-2.1-5.1h-8l-2,5.1h-3.6l7.8-18.6h3.7l7.8,18.6h-3.6ZM464.5,160.7l-2-5c-.1-.3-.3-.9-.6-1.6-.3-.7-.4-1.3-.5-1.6-.3,1-.6,2.2-1.1,3.4l-1.9,4.8h6.1Z"/>
    <path class="st0" d="M482.4,158.4h7.7v9.3c-1.3.4-2.5.6-3.6.8-1.2.2-2.4.2-3.7.2-3.2,0-5.6-.8-7.3-2.5-1.7-1.7-2.6-4-2.6-7s1-5.3,2.9-7,4.6-2.5,8-2.5,4.2.4,6.2,1.1l-1.2,2.5c-1.7-.7-3.4-1-5.1-1s-4,.6-5.3,1.9c-1.3,1.2-1.9,2.9-1.9,5.1s.6,4,1.7,5.2c1.2,1.2,2.8,1.8,5,1.8s2.3-.1,3.5-.4v-4.8h-4.3v-2.6Z"/>
    <path class="st0" d="M506.8,168.5h-11.8v-18.5h11.8v2.6h-8.4v5h7.8v2.5h-7.8v5.8h8.4v2.6Z"/>
    <path class="st0" d="M520.3,168.5l-6-15.5h-.1c.2,2.3.2,4.5.2,6.5v9h-3.1v-18.5h4.8l5.8,14.7h0l6-14.7h4.8v18.5h-3.3v-9.2c0-.9,0-2.1,0-3.6,0-1.5,0-2.4.1-2.7h-.1l-6.3,15.5h-3Z"/>
    <path class="st0" d="M550,168.5h-11.8v-18.5h11.8v2.6h-8.4v5h7.8v2.5h-7.8v5.8h8.4v2.6Z"/>
    <path class="st0" d="M571.9,168.5h-4.2l-10.2-14.8h-.1v.8c.2,1.6.3,3,.3,4.3v9.6h-3.1v-18.5h4.1l10.2,14.7h0c0-.2,0-.9-.1-2.1,0-1.2,0-2.2,0-2.9v-9.7h3.1v18.5Z"/>
    <path class="st0" d="M584.6,168.5h-3.4v-15.9h-6.1v-2.6h15.7v2.6h-6.1v15.9Z"/>
  </g>
</svg>