<?xml version="1.0" encoding="UTF-8"?>
<svg id="Layer_1" xmlns="http://www.w3.org/2000/svg" width="1294.3" height="558" version="1.1" viewBox="0 0 1294.3 558">
  <!-- Generator: Adobe Illustrator 30.4.0, SVG Export Plug-In . SVG Version: 2.1.4 Build 226)  -->
  <defs>
    <style>
      .st0 {
        fill: #5eb9c4;
      }

      .st1 {
        fill: #2a3c6d;
      }

      .st2 {
        fill: #fdfdfd;
      }
    </style>
  </defs>
  <g>
    <polygon class="st1" points="393.8 180 368.8 180.4 373.5 143.2 389.3 142.9 393.8 180"/>
    <path class="st1" d="M387.1,139.6c-3.4,1.4-9,1.3-12.1,0-4.5-1.9-5.2-6.9-4.9-11s4.4-6.8,8.1-9l.8-31.6c1.3-1.1,3-1.7,5.4-2.1l.3,33.8c3.7,2.4,7.4,4.8,7.6,9.1s-.3,8.8-5.2,10.9Z"/>
    <path class="st0" d="M71.8,262.8l.3,7.8-60.8,26c-.1-.4,0-.8,0-1.1l55.9-31c1.7-.9,2.8-1.9,4.6-1.6Z"/>
    <g>
      <g>
        <path class="st1" d="M376,263.2l-23.3-12.3c-2.6-35.7-20-69.2-47.8-92.5l-80.1,20.9c-.7-.3-1.4-.3-2-.2-11.6-2.1-22.9-5.4-34.8-8.6l-45.1-11.9c-48.5,39.7-61.9,108.9-31.6,163.8,10.7,19.4,25.7,35.4,43.9,48,16.4,7.6,28.1,22.7,30,40.6l.2,23.6c36.2-17.7,70.4-38.5,104.4-60.6,37.6-24.5,61.6-63.8,62.9-109.5l22.7,10.2c-4.1,45.1-27.8,87.1-65.4,113.4s-76.3,48.7-117.2,68.6l-29.9,14.7-.9-60.1c-.1-8.1-8.4-14.1-14.8-18-22.1-13.5-39.3-32.1-53.1-54s-19.9-44.4-22-68.8l-.3-7.8c-.9-41.6,14.8-81.7,44.6-111.6l.3-47.1,87.3,29.5,18.9,5.9,108.7-33,.3,45.8c29.1,30.1,45.2,69.6,44.1,111Z"/>
        <path class="st1" d="M217.3,73.4c6.2,4.8,14.6,4.9,21.1-.5l121,19.3-137.5,41.7-121.9-41.3-49.9-17.1c-2.1-1.1-2.7-3.1-2.4-5.1s2.3-2.3,4.5-3.1l64.8-24.2L215.5,6.8c5.9-2.2,10.1-1.3,15.7.9l167.1,63.8c1,9.6-20.6,15.7-25.7,15l-134.5-20.8c-8.8-6.7-21.4-3.2-22.7,2.8s.2,3.7,1.8,5Z"/>
      </g>
      <path class="st0" d="M224.8,179.3c.2,1.7,1.9,1.9,3.8,2.9l124.1,68.7,23.3,12.3,5.7,3.7,34.2,18.9c5.3,2.9,10.6,5.7,15,9.8-20-7.4-38-16.4-57-24.9-7.4-3.4-14.1-7.1-22.1-9.1l-51.1-22.7-76.7-34.5-125.7,55.2.2-12.2,81.5-44.2,41.1-22.1c1.1-.6,1.7-1,1.7-2,.6,0,1.4,0,2,.2Z"/>
      <path class="st1" d="M277.6,514.4l-103.4-.2c-7.4,0-11.5-6.7-10.8-12.7s6.2-10.8,13.6-10.8l98.8.4c5.6,0,9.1,6.2,9.5,10.3s-1.7,10-7.6,12.9Z"/>
      <path class="st1" d="M284,465.8c-.4,5.7-4,9.3-9.6,11l-84.3-.2,93.3-52.3.6,41.5Z"/>
      <path class="st1" d="M256.1,548.4h-62.2c-6,.1-9.2-6.5-9.4-11.1s3.4-11.8,9.5-11.8l62.1.2c5.5,0,8.3,6.6,8.4,10.7s-2.1,12-8.3,12Z"/>
      <g>
        <rect class="st0" x="192" y="279" width="28.6" height="26.9" transform="translate(-86.3 498.7) rotate(-90)"/>
        <rect class="st0" x="192.9" y="241.7" width="26.9" height="28.1"/>
        <rect class="st0" x="229.4" y="241.6" width="26.7" height="28.2"/>
        <rect class="st0" x="228.6" y="279.2" width="28.3" height="26.8" transform="translate(-50.1 535.1) rotate(-89.9)"/>
      </g>
      <path class="st2" d="M352.7,250.9l-124.1-68.7c-1.9-1-3.6-1.2-3.8-2.9l80.1-20.9c27.8,23.3,45.2,56.8,47.8,92.5Z"/>
    </g>
    <g>
      <polygon class="st1" points="1142.2 381.3 1142.2 223.8 1173.7 223.8 1247.9 322 1248.2 223.8 1282.4 223.4 1282.4 381.3 1250.9 381.2 1176.8 282 1176.6 381.2 1142.2 381.3"/>
      <path class="st1" d="M731.1,303.3c-.5,33.4-20.4,61.3-51.5,72.4-8.2,2.9-16.9,5.3-26,5.3l-70.5.2v-157.6s66.6.1,66.6.1c16.3,0,31.7,4.4,45.3,12.6,23.1,14.6,36.5,38.9,36.1,66.9ZM694.3,315c2.1-11,1.5-20.8-1.9-30.8-6-17.6-21.5-28.4-40.1-29.8l-34.3-.2-.2,96.7,35.9-.3c20.1-1.3,36.6-15.7,40.6-35.6Z"/>
      <path class="st1" d="M1003.3,376.9c-29.3-12-48-38.5-50-69.1-2.1-31.8,13.3-60,41.6-75.2,39.1-21,93.3-10.1,116.9,30.1,20.8,35.6,10.4,81-23.4,104.9-24.4,17.3-57,20.8-85.1,9.3ZM1086.8,302.6c0-27.2-22-49.2-49.2-49.2s-49.2,22-49.2,49.2,22,49.2,49.2,49.2,49.2-22,49.2-49.2Z"/>
      <polygon class="st1" points="548.5 315.7 475.8 315.8 476 351 558.3 351.2 558.3 381.1 441.3 381.1 441.3 223.7 556.2 223.7 556.4 253.8 476.2 253.8 476.2 286.3 548.5 286.2 548.5 315.7"/>
      <path class="st1" d="M914.7,374.9c-30,15-77.4,6.8-102.7-16.4l7.6-19,4.2-9.9c19.2,14.1,48.2,28.9,69.5,19.9,5.1-2.2,8.5-6.5,8.9-11.2,1.2-13.4-13.5-16.3-25.4-20.4l-33.5-11.4c-13.5-5.9-23.4-17.6-24.5-32.6-2-27.3,14.3-44.5,40.6-49.7,26.6-5.2,54.3.2,77.6,14.9l-12.1,29.3c-13.2-7.1-26.1-12.5-40.6-15-12.5-2.2-26.6.1-28.1,11-1.7,12.7,17.2,18.4,31,22.3,27,7.6,51.3,15.7,52.2,46.1.5,18-7.7,33.8-24.4,42.1Z"/>
      <rect class="st1" x="692.7" y="284.8" width="157.7" height="35.4" transform="translate(469.0235 1073.99) rotate(-89.9926)"/>
      <path class="st2" d="M694.3,315c-4,19.9-20.4,34.3-40.6,35.6l-35.9.3.2-96.7,34.3.2c18.6,1.4,34.1,12.2,40.1,29.8,3.4,10,4,19.8,1.9,30.8Z"/>
      <circle class="st2" cx="1037.6" cy="302.6" r="49.2"/>
    </g>
  </g>
  <g>
    <path class="st0" d="M1038.6,447.7c0,16.2-13.2,29.4-29.4,29.4s-29.4-13.2-29.4-29.4,13.2-29.4,29.4-29.4,29.4,13.2,29.4,29.4ZM1028.2,447.8c0-10.5-8.5-19-19-19s-19,8.5-19,19,8.5,19,19,19,19-8.5,19-19Z"/>
    <path class="st0" d="M709.9,439.7c4.8,17.6-7.7,35.3-21.6,35.5l-27.2.4-.2-56h24.3c12,0,21.6,8.6,24.7,20.1ZM700.4,446.7c-.4-9.1-6-16-14.9-17.7s-9-.7-14.1,0v37.7c0,0,11.4,0,11.4,0,10.9,0,18.1-9,17.6-20Z"/>
    <path class="st0" d="M1102.1,474.6c0,2.8-5.2,1.3-6.7-.4l-31.2-34.7-.5,36c-3.4.4-6.4.6-9.9,0v-55.7c.9-1.2,4.2-1.5,5.3-.3l32.7,35.8.2-35.5c3.4-.5,6.2-.6,10.3,0v54.6Z"/>
    <path class="st0" d="M641.5,451.3l-22.9.6v15s26.2,0,26.2,0c.7,2.6.6,5.2,0,8.7h-36.8s.1-56.2.1-56.2l36.4-.2c.4,2.8.4,5.4,0,8.5l-14.7.6c-3.8.1-7.4-1.1-11.2.4v14s22.4,0,22.4,0c.8,2.4.7,5.1.4,8.5Z"/>
    <path class="st0" d="M724.7,420c3.5-.8,6.6-.6,10.3-.3l.5,37.1c.1,7.1,6.8,10.9,13.2,10.3,7.3-.6,12.1-5.2,12-12.5v-34.9s9.8-.6,9.8-.6v36.4c.1,12.9-9.5,20.9-21.8,21.2s-23.7-7-23.8-20.3l-.3-36.6Z"/>
    <rect class="st0" x="1207" y="378.9" width="8.4" height="143" transform="translate(760.3505 1661.4893) rotate(-89.98)"/>
    <path class="st0" d="M882.8,464.9l-24.3-.4-5.8,10.4c-2.1,2-7.6,1.2-10.7.2l24-52.1c.9-1.8.9-3.5,2.6-4s4.1-.6,4.9,1.1l25,54.9c-3.2,1-7.5,1.4-10.4.3-2.5-2.3-3.3-6.4-5.3-10.4ZM878.8,455.6l-8.5-19.8-8.7,19.6,17.2.3Z"/>
    <path class="st0" d="M827.7,461.7c3.8.8,6.9,3.4,8.1,6.6-5.4,6.3-13.1,8.3-21,8.5-14.5.5-26.2-8.8-29.2-22.8-3.8-17.6,8.2-34,26.3-34.9,7.9-.4,17.2.7,22.4,7.4.9,2.3-3.7,7.2-6.4,7.1-7.2-5.9-17.3-7-24.7-1-7,5.6-9.6,15.4-5.2,23.9s7.4,9,11.9,9.9c6.7,1.4,12.7.4,17.8-4.7Z"/>
    <rect class="st0" x="440.8" y="446.3" width="133.5" height="8.4"/>
    <path class="st0" d="M926.7,475.5c-3.6.5-6.9.6-10.5-.2l-.2-46.7-14.1-.7c-.5-2.9-.6-5.3,0-8.4h39.2c0,0,.3,8.3.3,8.3l-14.7,1v46.7Z"/>
    <rect class="st0" x="954.8" y="419.6" width="10" height="56.3"/>
    <circle class="st2" cx="1009.2" cy="447.8" r="19"/>
    <path class="st2" d="M700.4,446.7c.5,11.1-6.7,20.1-17.6,20h-11.3c0,0,0-37.8,0-37.8,5.2-.7,9.7-.9,14.1,0,8.8,1.8,14.5,8.6,14.9,17.7Z"/>
    <polygon class="st2" points="878.8 455.6 861.6 455.3 870.3 435.8 878.8 455.6"/>
  </g>
</svg>